<svg xmlns="http://www.w3.org/2000/svg" width="16" height="16" viewBox="0 0 16 16">
  <rect width="16" height="16" fill="#4f46e5" rx="2" opacity="0.9" />
  <path d="M10.14 5.86C10.14 5.86 10.14 5.86 10.14 5.72C10 5.58 9.86 5.58 9.72 5.58L8.78 5.72L8.25 4.78C8.25 4.64 8.11 4.5 7.97 4.5C7.83 4.5 7.69 4.64 7.69 4.78L7.17 5.72L6.22 5.58C6.08 5.58 5.94 5.58 5.81 5.72C5.81 5.86 5.81 5.86 5.81 6L6.36 6.81L5.81 7.75C5.81 7.89 5.81 8.03 5.94 8.17C6.08 8.17 6.22 8.17 6.36 8.03L7.31 7.61L8.11 8.44C8.25 8.58 8.39 8.58 8.53 8.44C8.67 8.31 8.67 8.17 8.53 8.03L8.25 7.08L9.19 6.53C9.33 6.39 9.47 6.25 9.47 6.11L10.14 5.86Z" stroke="white" stroke-width="0.75" fill="white" />
</svg> 