<svg xmlns="http://www.w3.org/2000/svg" width="32" height="32" viewBox="0 0 32 32" fill="none">
  <circle cx="16" cy="16" r="14" fill="url(#gradient1)" opacity="0.5" />
  <circle cx="16" cy="16" r="12" fill="url(#gradient2)" opacity="0.3" />
  <circle cx="16" cy="16" r="10" fill="url(#gradient3)" opacity="0.2" />
  <path d="M20.2778 11.7222C20.2778 11.7222 20.2778 11.7222 20.2778 11.4444C20 11.1667 19.7222 11.1667 19.4444 11.1667L17.5556 11.4444L16.5 9.55556C16.5 9.27778 16.2222 9 15.9444 9C15.6667 9 15.3889 9.27778 15.3889 9.55556L14.3333 11.4444L12.4444 11.1667C12.1667 11.1667 11.8889 11.1667 11.6111 11.4444C11.6111 11.7222 11.6111 11.7222 11.6111 12L12.7222 13.6111L11.6111 15.5C11.6111 15.7778 11.6111 16.0556 11.8889 16.3333C12.1667 16.3333 12.4444 16.3333 12.7222 16.0556L14.6111 15.2222L16.2222 16.8889C16.5 17.1667 16.7778 17.1667 17.0556 16.8889C17.3333 16.6111 17.3333 16.3333 17.0556 16.0556L16.5 14.1667L18.3889 13.0556C18.6667 12.7778 18.9444 12.5 18.9444 12.2222L20.2778 11.7222Z" stroke="white" stroke-width="1.5" fill="white" />
  <defs>
    <linearGradient id="gradient1" x1="2" y1="2" x2="30" y2="30" gradientUnits="userSpaceOnUse">
      <stop offset="0%" stop-color="#4f46e5" />
      <stop offset="50%" stop-color="#ec4899" />
      <stop offset="100%" stop-color="#4f46e5" />
    </linearGradient>
    <linearGradient id="gradient2" x1="4" y1="4" x2="28" y2="28" gradientUnits="userSpaceOnUse">
      <stop offset="0%" stop-color="#ec4899" />
      <stop offset="50%" stop-color="#4f46e5" />
      <stop offset="100%" stop-color="#ec4899" />
    </linearGradient>
    <linearGradient id="gradient3" x1="6" y1="6" x2="26" y2="26" gradientUnits="userSpaceOnUse">
      <stop offset="0%" stop-color="#4f46e5" />
      <stop offset="50%" stop-color="#ec4899" />
      <stop offset="100%" stop-color="#4f46e5" />
    </linearGradient>
  </defs>
</svg> 